<mxfile host="app.diagrams.net" modified="2023-08-08T05:10:22.663Z" agent="Mozilla/5.0 (Windows NT 10.0; Win64; x64) AppleWebKit/537.36 (KHTML, like Gecko) Chrome/115.0.0.0 Safari/537.36" etag="_BIgK72ZnFbuyeK6tUXI" version="21.6.6" type="github">
  <diagram name="Page-1" id="UBKSSbcJPuMGofb1icQ0">
    <mxGraphModel dx="635" dy="370" grid="1" gridSize="10" guides="1" tooltips="1" connect="1" arrows="1" fold="1" page="1" pageScale="1" pageWidth="850" pageHeight="1100" math="0" shadow="0">
      <root>
        <mxCell id="0" />
        <mxCell id="1" parent="0" />
        <mxCell id="ZRB3tkxGRJ4Kb9s2MHFT-1" value="Saleperson" style="swimlane;fontStyle=0;childLayout=stackLayout;horizontal=1;startSize=30;horizontalStack=0;resizeParent=1;resizeParentMax=0;resizeLast=0;collapsible=1;marginBottom=0;whiteSpace=wrap;html=1;" vertex="1" parent="1">
          <mxGeometry x="60" y="120" width="140" height="60" as="geometry" />
        </mxCell>
        <mxCell id="ZRB3tkxGRJ4Kb9s2MHFT-2" value="Item 1" style="text;strokeColor=none;fillColor=none;align=left;verticalAlign=middle;spacingLeft=4;spacingRight=4;overflow=hidden;points=[[0,0.5],[1,0.5]];portConstraint=eastwest;rotatable=0;whiteSpace=wrap;html=1;" vertex="1" parent="ZRB3tkxGRJ4Kb9s2MHFT-1">
          <mxGeometry y="30" width="140" height="30" as="geometry" />
        </mxCell>
        <mxCell id="ZRB3tkxGRJ4Kb9s2MHFT-5" value="supplier" style="swimlane;fontStyle=0;childLayout=stackLayout;horizontal=1;startSize=30;horizontalStack=0;resizeParent=1;resizeParentMax=0;resizeLast=0;collapsible=1;marginBottom=0;whiteSpace=wrap;html=1;" vertex="1" parent="1">
          <mxGeometry x="60" y="280" width="140" height="60" as="geometry" />
        </mxCell>
        <mxCell id="ZRB3tkxGRJ4Kb9s2MHFT-6" value="Item 1" style="text;strokeColor=none;fillColor=none;align=left;verticalAlign=middle;spacingLeft=4;spacingRight=4;overflow=hidden;points=[[0,0.5],[1,0.5]];portConstraint=eastwest;rotatable=0;whiteSpace=wrap;html=1;" vertex="1" parent="ZRB3tkxGRJ4Kb9s2MHFT-5">
          <mxGeometry y="30" width="140" height="30" as="geometry" />
        </mxCell>
        <mxCell id="ZRB3tkxGRJ4Kb9s2MHFT-7" value="customer" style="swimlane;fontStyle=0;childLayout=stackLayout;horizontal=1;startSize=30;horizontalStack=0;resizeParent=1;resizeParentMax=0;resizeLast=0;collapsible=1;marginBottom=0;whiteSpace=wrap;html=1;" vertex="1" parent="1">
          <mxGeometry x="600" y="120" width="140" height="60" as="geometry" />
        </mxCell>
        <mxCell id="ZRB3tkxGRJ4Kb9s2MHFT-8" value="Item 1" style="text;strokeColor=none;fillColor=none;align=left;verticalAlign=middle;spacingLeft=4;spacingRight=4;overflow=hidden;points=[[0,0.5],[1,0.5]];portConstraint=eastwest;rotatable=0;whiteSpace=wrap;html=1;" vertex="1" parent="ZRB3tkxGRJ4Kb9s2MHFT-7">
          <mxGeometry y="30" width="140" height="30" as="geometry" />
        </mxCell>
        <mxCell id="ZRB3tkxGRJ4Kb9s2MHFT-9" value="parts" style="swimlane;fontStyle=0;childLayout=stackLayout;horizontal=1;startSize=30;horizontalStack=0;resizeParent=1;resizeParentMax=0;resizeLast=0;collapsible=1;marginBottom=0;whiteSpace=wrap;html=1;" vertex="1" parent="1">
          <mxGeometry x="330" y="400" width="140" height="60" as="geometry" />
        </mxCell>
        <mxCell id="ZRB3tkxGRJ4Kb9s2MHFT-10" value="Item 1" style="text;strokeColor=none;fillColor=none;align=left;verticalAlign=middle;spacingLeft=4;spacingRight=4;overflow=hidden;points=[[0,0.5],[1,0.5]];portConstraint=eastwest;rotatable=0;whiteSpace=wrap;html=1;" vertex="1" parent="ZRB3tkxGRJ4Kb9s2MHFT-9">
          <mxGeometry y="30" width="140" height="30" as="geometry" />
        </mxCell>
        <mxCell id="ZRB3tkxGRJ4Kb9s2MHFT-11" value="employee" style="swimlane;fontStyle=0;childLayout=stackLayout;horizontal=1;startSize=30;horizontalStack=0;resizeParent=1;resizeParentMax=0;resizeLast=0;collapsible=1;marginBottom=0;whiteSpace=wrap;html=1;" vertex="1" parent="1">
          <mxGeometry x="60" y="400" width="140" height="60" as="geometry" />
        </mxCell>
        <mxCell id="ZRB3tkxGRJ4Kb9s2MHFT-12" value="Item 1" style="text;strokeColor=none;fillColor=none;align=left;verticalAlign=middle;spacingLeft=4;spacingRight=4;overflow=hidden;points=[[0,0.5],[1,0.5]];portConstraint=eastwest;rotatable=0;whiteSpace=wrap;html=1;" vertex="1" parent="ZRB3tkxGRJ4Kb9s2MHFT-11">
          <mxGeometry y="30" width="140" height="30" as="geometry" />
        </mxCell>
        <mxCell id="ZRB3tkxGRJ4Kb9s2MHFT-13" value="inventory item" style="swimlane;fontStyle=0;childLayout=stackLayout;horizontal=1;startSize=30;horizontalStack=0;resizeParent=1;resizeParentMax=0;resizeLast=0;collapsible=1;marginBottom=0;whiteSpace=wrap;html=1;" vertex="1" parent="1">
          <mxGeometry x="600" y="400" width="140" height="60" as="geometry" />
        </mxCell>
        <mxCell id="ZRB3tkxGRJ4Kb9s2MHFT-14" value="Item 1" style="text;strokeColor=none;fillColor=none;align=left;verticalAlign=middle;spacingLeft=4;spacingRight=4;overflow=hidden;points=[[0,0.5],[1,0.5]];portConstraint=eastwest;rotatable=0;whiteSpace=wrap;html=1;" vertex="1" parent="ZRB3tkxGRJ4Kb9s2MHFT-13">
          <mxGeometry y="30" width="140" height="30" as="geometry" />
        </mxCell>
        <mxCell id="ZRB3tkxGRJ4Kb9s2MHFT-15" value="order" style="swimlane;fontStyle=0;childLayout=stackLayout;horizontal=1;startSize=30;horizontalStack=0;resizeParent=1;resizeParentMax=0;resizeLast=0;collapsible=1;marginBottom=0;whiteSpace=wrap;html=1;" vertex="1" parent="1">
          <mxGeometry x="600" y="280" width="140" height="60" as="geometry" />
        </mxCell>
        <mxCell id="ZRB3tkxGRJ4Kb9s2MHFT-16" value="Item 1" style="text;strokeColor=none;fillColor=none;align=left;verticalAlign=middle;spacingLeft=4;spacingRight=4;overflow=hidden;points=[[0,0.5],[1,0.5]];portConstraint=eastwest;rotatable=0;whiteSpace=wrap;html=1;" vertex="1" parent="ZRB3tkxGRJ4Kb9s2MHFT-15">
          <mxGeometry y="30" width="140" height="30" as="geometry" />
        </mxCell>
        <mxCell id="ZRB3tkxGRJ4Kb9s2MHFT-18" value="" style="edgeStyle=entityRelationEdgeStyle;fontSize=12;html=1;endArrow=ERoneToMany;endFill=0;rounded=0;entryX=0.11;entryY=-0.044;entryDx=0;entryDy=0;entryPerimeter=0;exitX=0.957;exitY=-0.022;exitDx=0;exitDy=0;exitPerimeter=0;startArrow=ERone;startFill=0;" edge="1" parent="1">
          <mxGeometry width="100" height="100" relative="1" as="geometry">
            <mxPoint x="200.00000000000003" y="149.50000000000003" as="sourcePoint" />
            <mxPoint x="606.0200000000001" y="149.49999999999994" as="targetPoint" />
            <Array as="points">
              <mxPoint x="236.02" y="149.16" />
              <mxPoint x="236.02" y="150.16" />
              <mxPoint x="196.02" y="149.16" />
              <mxPoint x="210.62" y="150.82" />
              <mxPoint x="90.61999999999999" y="-69.18" />
              <mxPoint x="560.62" y="149.82" />
              <mxPoint x="560.62" y="149.82" />
              <mxPoint x="570.62" y="149.82" />
              <mxPoint x="80.61999999999999" y="-69.18" />
            </Array>
          </mxGeometry>
        </mxCell>
        <mxCell id="ZRB3tkxGRJ4Kb9s2MHFT-27" value="" style="fontSize=12;html=1;endArrow=ERoneToMany;rounded=0;entryX=1;entryY=0.5;entryDx=0;entryDy=0;exitX=0.6;exitY=1.067;exitDx=0;exitDy=0;exitPerimeter=0;edgeStyle=orthogonalEdgeStyle;elbow=vertical;startArrow=ERone;startFill=0;" edge="1" parent="1">
          <mxGeometry width="100" height="100" relative="1" as="geometry">
            <mxPoint x="170" y="179" as="sourcePoint" />
            <mxPoint x="200" y="160" as="targetPoint" />
            <Array as="points">
              <mxPoint x="226" y="215" />
            </Array>
          </mxGeometry>
        </mxCell>
      </root>
    </mxGraphModel>
  </diagram>
</mxfile>
